<?xml version="1.0" standalone="no"?>
<!DOCTYPE svg PUBLIC "-//W3C//DTD SVG 20010904//EN"
 "http://www.w3.org/TR/2001/REC-SVG-20010904/DTD/svg10.dtd">
<svg version="1.0" xmlns="http://www.w3.org/2000/svg"
 width="512.000000pt" height="512.000000pt" viewBox="0 0 512.000000 512.000000"
 preserveAspectRatio="xMidYMid meet">
<metadata>
Created by potrace 1.14, written by Peter Selinger 2001-2017
</metadata>
<g transform="translate(0.000000,512.000000) scale(0.100000,-0.100000)"
fill="#000000" stroke="none">
<path d="M2180 4869 c-641 -51 -1172 -215 -1595 -494 -243 -161 -392 -322
-494 -535 -65 -135 -82 -205 -88 -367 -12 -301 43 -627 159 -935 l40 -108 -37
-56 c-55 -82 -110 -207 -136 -309 -22 -82 -24 -111 -24 -320 0 -225 1 -232 29
-320 102 -323 331 -569 734 -789 477 -260 1094 -396 1796 -396 785 1 1449 169
1956 495 247 160 404 329 511 550 72 150 80 191 86 410 8 306 -29 473 -145
651 -53 83 -55 87 -42 118 7 17 35 94 61 172 84 240 129 510 129 764 0 207
-21 303 -102 464 -98 197 -252 360 -488 514 -423 278 -957 441 -1609 492 -155
12 -587 11 -741 -1z m575 -319 c563 -28 1030 -141 1424 -346 223 -116 366
-227 468 -362 113 -149 147 -252 146 -437 -3 -657 -320 -1302 -840 -1716 -549
-436 -1267 -588 -1952 -414 -644 163 -1198 627 -1470 1229 -112 248 -180 514
-200 782 -20 259 13 384 146 562 203 269 695 515 1253 626 191 38 409 65 596
75 93 4 180 9 194 9 14 1 120 -3 235 -8z"/>
<path d="M2370 4389 c-376 -15 -722 -75 -1021 -177 -383 -131 -638 -293 -769
-489 -70 -104 -94 -188 -88 -306 8 -151 53 -242 188 -377 132 -133 306 -238
557 -336 285 -112 693 -193 1048 -209 72 -3 163 -8 203 -11 65 -4 72 -3 72 14
0 30 42 62 81 62 36 0 79 -32 79 -60 0 -27 420 14 680 66 258 51 499 132 704
235 143 73 237 140 341 244 132 132 186 245 186 394 0 132 -46 246 -147 359
-284 318 -985 562 -1684 587 -80 3 -170 7 -200 8 -30 2 -134 0 -230 -4z m-816
-153 c36 -15 56 -54 56 -111 0 -53 55 -145 145 -243 110 -121 156 -210 163
-316 4 -70 3 -76 -21 -100 -31 -31 -75 -34 -107 -8 -15 12 -25 39 -35 89 -19
99 -41 136 -148 252 -117 126 -157 200 -165 300 -6 93 1 119 41 136 40 18 32
17 71 1z m801 0 c36 -15 46 -38 60 -137 7 -59 45 -118 133 -211 38 -40 83 -93
101 -117 40 -57 71 -157 71 -231 0 -51 -3 -61 -26 -79 -62 -49 -127 -12 -139
80 -11 89 -45 147 -143 252 -50 53 -102 116 -116 139 -45 78 -70 209 -52 266
5 13 22 30 39 37 40 18 32 17 72 1z m799 0 c37 -15 40 -21 55 -107 15 -88 47
-142 137 -238 45 -49 94 -107 108 -129 37 -59 66 -154 66 -217 0 -46 -4 -60
-25 -80 -30 -31 -73 -32 -108 -5 -20 16 -27 33 -32 78 -10 86 -46 150 -145
256 -110 119 -162 215 -168 312 -6 87 2 112 41 129 40 18 32 17 71 1z"/>
<path d="M2477 2082 l-77 -77 0 -243 0 -242 240 0 240 0 0 243 0 242 -78 78
-77 77 -85 0 -85 0 -78 -78z"/>
</g>
</svg>
